<svg width="49" height="49" viewBox="0 0 49 49" fill="none" xmlns="http://www.w3.org/2000/svg">
<rect x="0.5" y="0.5" width="48" height="48" rx="24" fill="#333333"/>
<path d="M34.5 28.69C34.5 32.33 32.33 34.5 28.69 34.5H27.5C26.95 34.5 26.5 34.05 26.5 33.5V27.73C26.5 27.46 26.72 27.23 26.99 27.23L28.75 27.2C28.89 27.19 29.01 27.09 29.04 26.95L29.39 25.04C29.42 24.86 29.28 24.69 29.09 24.69L26.96 24.72C26.68 24.72 26.46 24.5 26.45 24.23L26.41 21.78C26.41 21.62 26.54 21.48 26.71 21.48L29.11 21.44C29.28 21.44 29.41 21.31 29.41 21.14L29.37 18.74C29.37 18.57 29.24 18.44 29.07 18.44L26.37 18.48C24.71 18.51 23.39 19.87 23.42 21.53L23.47 24.28C23.48 24.56 23.26 24.78 22.98 24.79L21.78 24.81C21.61 24.81 21.48 24.94 21.48 25.11L21.51 27.01C21.51 27.18 21.64 27.31 21.81 27.31L23.01 27.29C23.29 27.29 23.51 27.51 23.52 27.78L23.61 33.48C23.62 34.04 23.17 34.5 22.61 34.5H20.31C16.67 34.5 14.5 32.33 14.5 28.68V20.31C14.5 16.67 16.67 14.5 20.31 14.5H28.69C32.33 14.5 34.5 16.67 34.5 20.31V28.69V28.69Z" fill="white"/>
</svg>
