<svg width="49" height="49" viewBox="0 0 49 49" fill="none" xmlns="http://www.w3.org/2000/svg">
<rect x="0.5" y="0.5" width="48" height="48" rx="24" fill="#333333"/>
<path d="M31.5 15.5C32.0304 15.5 32.5391 15.7107 32.9142 16.0858C33.2893 16.4609 33.5 16.9696 33.5 17.5V31.5C33.5 32.0304 33.2893 32.5391 32.9142 32.9142C32.5391 33.2893 32.0304 33.5 31.5 33.5H17.5C16.9696 33.5 16.4609 33.2893 16.0858 32.9142C15.7107 32.5391 15.5 32.0304 15.5 31.5V17.5C15.5 16.9696 15.7107 16.4609 16.0858 16.0858C16.4609 15.7107 16.9696 15.5 17.5 15.5H31.5ZM31 31V25.7C31 24.8354 30.6565 24.0062 30.0452 23.3948C29.4338 22.7835 28.6046 22.44 27.74 22.44C26.89 22.44 25.9 22.96 25.42 23.74V22.63H22.63V31H25.42V26.07C25.42 25.3 26.04 24.67 26.81 24.67C27.1813 24.67 27.5374 24.8175 27.7999 25.0801C28.0625 25.3426 28.21 25.6987 28.21 26.07V31H31ZM19.38 21.06C19.8256 21.06 20.2529 20.883 20.5679 20.5679C20.883 20.2529 21.06 19.8256 21.06 19.38C21.06 18.45 20.31 17.69 19.38 17.69C18.9318 17.69 18.5019 17.8681 18.185 18.185C17.8681 18.5019 17.69 18.9318 17.69 19.38C17.69 20.31 18.45 21.06 19.38 21.06ZM20.77 31V22.63H18V31H20.77Z" fill="white"/>
</svg>
