<svg width="49" height="49" viewBox="0 0 49 49" fill="none" xmlns="http://www.w3.org/2000/svg">
<rect x="0.5" y="0.5" width="48" height="48" rx="24" fill="#333333"/>
<path d="M21.5 34.5H27.5C32.5 34.5 34.5 32.5 34.5 27.5V21.5C34.5 16.5 32.5 14.5 27.5 14.5H21.5C16.5 14.5 14.5 16.5 14.5 21.5V27.5C14.5 32.5 16.5 34.5 21.5 34.5Z" stroke="white" stroke-width="2" stroke-linecap="round" stroke-linejoin="round"/>
<path d="M24.5 28C26.433 28 28 26.433 28 24.5C28 22.567 26.433 21 24.5 21C22.567 21 21 22.567 21 24.5C21 26.433 22.567 28 24.5 28Z" stroke="white" stroke-width="2" stroke-linecap="round" stroke-linejoin="round"/>
<path d="M30.1361 19.5H30.1477" stroke="white" stroke-width="2" stroke-linecap="round" stroke-linejoin="round"/>
</svg>
