<svg width="156" height="48" viewBox="0 0 156 48" fill="none" xmlns="http://www.w3.org/2000/svg">
<g clip-path="url(#clip0_1219_12255)">
<ellipse cx="24.0385" cy="24" rx="24.0385" ry="24" fill="url(#paint0_linear_1219_12255)"/>
<path d="M19.7103 16.0491C16.7516 17.7574 15.9155 21.2205 17.4672 24.442L27.9848 18.3696C26.0233 15.2926 22.7154 14.3141 19.7103 16.0491ZM51.5707 16.8596L53.979 19.1005C56.0334 24.3669 38.0219 33.1921 31.8963 36.7287C24.2681 41.1328 16.8839 38.9128 12.3204 31.0085C7.77009 23.1272 9.43951 15.3421 16.7671 11.1115C23.9792 6.94759 31.3403 9.18092 35.6777 16.6935L36.8618 18.9106L19.7794 28.607L20.0189 29.0218C22.0546 32.5476 25.6938 33.6728 29.138 31.6843C31.6114 30.2563 52.0376 19.1096 51.5707 16.8596Z" fill="white"/>
<path d="M34.3172 14.6223L37.0274 19.2394L-2.74019 42.2951L-5.45039 37.678L34.3172 14.6223Z" fill="white"/>
<path d="M66.2172 10.5247L68.9274 14.9757L29.1598 38.0314L26.4496 33.5804L66.2172 10.5247Z" fill="white"/>
</g>
<path d="M71.832 29.3954H75.4457C74.6006 32.4554 72.0069 34.408 68.364 34.408C63.8177 34.408 60.9326 31.348 60.9326 26.7143C60.9326 22.0806 63.8469 19.0206 68.4514 19.0206C73.5806 19.0206 76.2326 22.8674 74.8337 27.6469H64.4589C64.7503 30.0657 66.0909 31.4937 68.4223 31.4937C70.0543 31.4937 71.3366 30.736 71.832 29.3954ZM68.3931 21.8183C66.2074 21.8183 64.8669 23.0423 64.5171 25.2863H71.6863C71.8903 23.188 70.6954 21.8183 68.3931 21.8183ZM77.3553 27.7343V24.6451H84.7575V27.7343H77.3553ZM104.32 19.0206C107.322 19.0206 108.896 21.1771 108.896 24.7326V34H105.573V25.0823C105.573 23.2171 104.786 21.964 103.213 21.964C101.202 21.964 99.803 23.8874 99.803 26.86V34H96.4807V25.0823C96.4807 23.188 95.6939 21.9057 94.091 21.9057C92.1384 21.9057 90.6521 23.8583 90.6521 26.8891V34H87.3299V19.4286H90.6521V22.0223C91.4099 20.3029 93.0419 19.0206 95.2859 19.0206C97.4133 19.0206 98.9579 20.2154 99.5699 22.1097C100.415 20.1863 102.134 19.0206 104.32 19.0206ZM121.014 26.86V19.4286H124.337V34H121.014V31.3771C119.994 33.3297 118.333 34.3497 116.293 34.3497C112.242 34.3497 111.601 30.328 111.601 27.7343V19.4286H114.924V27.7051C114.924 29.6286 115.361 31.4646 117.459 31.4646C119.616 31.4646 121.014 29.5411 121.014 26.86ZM135.675 19.0206C138.91 19.0206 140.484 21.4103 140.484 25.228V34H137.161V25.228C137.161 23.2171 136.345 21.9057 134.539 21.9057C132.382 21.9057 130.837 23.8874 130.837 26.86V34H127.515V13.6H130.837V22.1097C131.683 20.1863 133.431 19.0206 135.675 19.0206ZM150.711 19.0206C153.013 19.0206 154.499 20.7691 154.499 23.2171C154.499 24.2663 154.237 25.3154 153.8 26.1897H150.332C150.827 25.3737 151.06 24.5869 151.06 23.9166C151.06 22.7509 150.419 21.964 149.399 21.964C147.825 21.964 146.718 23.9166 146.718 26.86V34H143.396V19.4286H146.718V21.9057C147.505 20.0989 148.904 19.0206 150.711 19.0206Z" fill="#2B2D33"/>
<defs>
<linearGradient id="paint0_linear_1219_12255" x1="39.9231" y1="2.61539" x2="8.92308" y2="46.3846" gradientUnits="userSpaceOnUse">
<stop stop-color="#FF7F74"/>
<stop offset="1" stop-color="#C93327"/>
</linearGradient>
<clipPath id="clip0_1219_12255">
<rect width="48" height="48" rx="24" fill="white"/>
</clipPath>
</defs>
</svg>
